# xmcd CD database file generated by Grip 2.96
# 
# Track frame offsets:
#       150
#       56766
#       108347
#       125384
#       163296
#       187864
# 
# Disc length: 2648 seconds
# 
# Revision: 0
# Processed by: cddbd v1.4PL0 Copyright (c) Steve Scherf et al.
# Submitted via: Grip 2.96
# 
DISCID=4c0a5606
DTITLE=Project Groove - Reheasal 9th May 2002
DYEAR=1900
DGENRE=
TTITLE0=Original-1
TTITLE1=Original-2
TTITLE2=Hoochy Coochy Man
TTITLE3=Before you accuse me
TTITLE4=Baby please don't go
TTITLE5=Hey Joe
EXTD=
EXTT0=
EXTT1=
EXTT2=
EXTT3=
EXTT4=
EXTT5=
PLAYORDER=
